<svg xmlns="http://www.w3.org/2000/svg" width="370.758" height="512" viewBox="0 0 370.758 512">
  <g id="_10D" data-name="10D" transform="translate(-70.621)">
    <path id="Caminho_42" data-name="Caminho 42" d="M423.724,0H88.276A17.651,17.651,0,0,0,70.621,17.655v476.69A17.651,17.651,0,0,0,88.276,512H423.724a17.651,17.651,0,0,0,17.655-17.655V17.655A17.65,17.65,0,0,0,423.724,0" fill="#e6eef4"/>
    <g id="Grupo_30" data-name="Grupo 30">
      <path id="Caminho_43" data-name="Caminho 43" d="M256,176.552,150.069,308.966,256,441.379,361.931,308.966Z" fill="#d71e00"/>
      <path id="Caminho_44" data-name="Caminho 44" d="M97.1,141.241a8.828,8.828,0,1,0,17.656,0V35.31a8.828,8.828,0,0,0-17.656,0Z" fill="#d71e00"/>
      <path id="Caminho_45" data-name="Caminho 45" d="M132.414,61.793v52.966a35.31,35.31,0,0,0,70.62,0V61.793a35.31,35.31,0,1,0-70.62,0Zm52.965,0v52.966a17.655,17.655,0,1,1-35.31,0V61.793a17.655,17.655,0,0,1,35.31,0Z" fill="#d71e00"/>
    </g>
  </g>
</svg>
