<svg xmlns="http://www.w3.org/2000/svg" width="370.758" height="512" viewBox="0 0 370.758 512">
  <g id="_10H" data-name="10H" transform="translate(-70.621)">
    <path id="Caminho_46" data-name="Caminho 46" d="M423.724,0H88.276A17.651,17.651,0,0,0,70.621,17.655v476.69A17.651,17.651,0,0,0,88.276,512H423.724a17.651,17.651,0,0,0,17.655-17.655V17.655A17.65,17.65,0,0,0,423.724,0" fill="#e6eef4"/>
    <g id="Grupo_31" data-name="Grupo 31">
      <path id="Caminho_47" data-name="Caminho 47" d="M97.1,141.241a8.828,8.828,0,1,0,17.656,0V35.31a8.828,8.828,0,0,0-17.656,0Z" fill="#d71e00"/>
      <path id="Caminho_48" data-name="Caminho 48" d="M132.414,61.793v52.966a35.31,35.31,0,0,0,70.62,0V61.793a35.31,35.31,0,1,0-70.62,0Zm52.965,0v52.966a17.655,17.655,0,1,1-35.31,0V61.793a17.655,17.655,0,0,1,35.31,0Z" fill="#d71e00"/>
      <path id="Caminho_49" data-name="Caminho 49" d="M256,238.345c9.507-24.214,29.625-44.138,54.881-44.138,21.257,0,40.2,9.993,52.966,26.483,16.013,20.692,27.33,66.754-7.715,101.8C338.353,340.268,256,423.724,256,423.724s-82.353-83.456-100.131-101.235c-35.046-35.046-23.729-81.108-7.715-101.8,12.765-16.49,31.709-26.483,52.966-26.483,25.255,0,45.373,19.925,54.88,44.139" fill="#d71e00"/>
      <path id="Caminho_50" data-name="Caminho 50" d="M114.759,35.31a8.828,8.828,0,0,0-17.656,0v8.828a8.828,8.828,0,0,0,17.656,0Z" fill="#d71e00"/>
    </g>
  </g>
</svg>
