<svg xmlns="http://www.w3.org/2000/svg" width="370.758" height="512" viewBox="0 0 370.758 512">
  <g id="_2C" data-name="2C" transform="translate(-70.621)">
    <path id="Caminho_38" data-name="Caminho 38" d="M423.724,0H88.276A17.651,17.651,0,0,0,70.621,17.655v476.69A17.651,17.651,0,0,0,88.276,512H423.724a17.651,17.651,0,0,0,17.655-17.655V17.655A17.65,17.65,0,0,0,423.724,0" fill="#e6eef4"/>
    <g id="Grupo_29" data-name="Grupo 29">
      <path id="Caminho_39" data-name="Caminho 39" d="M282.483,370.759c0,21.91,6.038,43.82,8.13,50.732a1.738,1.738,0,0,1-1.7,2.233H223.082a1.738,1.738,0,0,1-1.7-2.225c2.074-6.947,8.139-29.1,8.139-50.741a50.013,50.013,0,0,1-29.917,9.578c-32.274,0-60.275-27.1-58.253-59.78,1.13-18.379,12.835-34.145,28.425-43.926,15.651-9.825,30.164-10.611,43.14-7.459a56.422,56.422,0,1,1,86.183,0c13.065-3.169,27.692-2.348,43.467,7.662,15.519,9.852,27.18,25.582,28.248,43.926,1.889,32.591-26.2,59.577-58.4,59.577a50.891,50.891,0,0,1-29.924-9.576"/>
      <path id="Caminho_40" data-name="Caminho 40" d="M150.069,141.241l8.828-8.828H105.931a8.828,8.828,0,0,0,0,17.656H158.9a8.828,8.828,0,0,0,8.828-8.828v-8.828a8.828,8.828,0,0,0-17.656,0Z"/>
      <path id="Caminho_41" data-name="Caminho 41" d="M155.813,81.484l2.335-2.758.608-.807c14.226-21.339-.114-51.01-25.754-51.434h-.588A35.308,35.308,0,0,0,97.1,61.794a8.828,8.828,0,0,0,17.656,0,17.653,17.653,0,0,1,17.655-17.655h.441c11.188.187,17.866,14,11.211,23.987l7.345,4.9-6.737-5.7-2.339,2.763a339.03,339.03,0,0,0-44.3,67.212,8.828,8.828,0,0,0,15.79,7.9A321.212,321.212,0,0,1,155.813,81.484Z"/>
    </g>
  </g>
</svg>
