<svg xmlns="http://www.w3.org/2000/svg" width="370.758" height="512" viewBox="0 0 370.758 512">
  <g id="_2H" data-name="2H" transform="translate(-70.621)">
    <path id="Caminho_46" data-name="Caminho 46" d="M423.724,0H88.276A17.651,17.651,0,0,0,70.621,17.655v476.69A17.651,17.651,0,0,0,88.276,512H423.724a17.651,17.651,0,0,0,17.655-17.655V17.655A17.65,17.65,0,0,0,423.724,0" fill="#e6eef4"/>
    <g id="Grupo_31" data-name="Grupo 31">
      <path id="Caminho_47" data-name="Caminho 47" d="M256,238.345c9.507-24.214,29.625-44.138,54.881-44.138,21.257,0,40.2,9.993,52.966,26.483,16.013,20.692,27.33,66.754-7.715,101.8C338.353,340.268,256,423.724,256,423.724s-82.353-83.456-100.131-101.235c-35.046-35.046-23.729-81.108-7.715-101.8,12.765-16.49,31.709-26.483,52.966-26.483,25.255,0,45.373,19.925,54.88,44.139" fill="#d71e00"/>
      <path id="Caminho_48" data-name="Caminho 48" d="M150.069,141.241l8.828-8.828H105.931a8.828,8.828,0,0,0,0,17.656H158.9a8.828,8.828,0,0,0,8.828-8.828v-8.828a8.828,8.828,0,0,0-17.656,0Z" fill="#d71e00"/>
      <path id="Caminho_49" data-name="Caminho 49" d="M155.813,81.484l2.335-2.758.608-.807c14.226-21.339-.114-51.01-25.754-51.434h-.588A35.308,35.308,0,0,0,97.1,61.794a8.828,8.828,0,0,0,17.656,0,17.653,17.653,0,0,1,17.655-17.655h.441c11.188.187,17.866,14,11.211,23.987l7.345,4.9-6.737-5.7-2.339,2.763a339.03,339.03,0,0,0-44.3,67.212,8.828,8.828,0,0,0,15.79,7.9A321.212,321.212,0,0,1,155.813,81.484Z" fill="#d71e00"/>
    </g>
  </g>
</svg>
