<svg xmlns="http://www.w3.org/2000/svg" width="370.758" height="512" viewBox="0 0 370.758 512">
  <g id="_2S" data-name="2S" transform="translate(-70.621)">
    <path id="Caminho_50" data-name="Caminho 50" d="M423.724,0H88.276A17.651,17.651,0,0,0,70.621,17.655v476.69A17.651,17.651,0,0,0,88.276,512H423.724a17.651,17.651,0,0,0,17.655-17.655V17.655A17.65,17.65,0,0,0,423.724,0" fill="#e6eef4"/>
    <g id="Grupo_32" data-name="Grupo 32">
      <path id="Caminho_51" data-name="Caminho 51" d="M282.483,361.931h0s44.323,44.323,79.448-8.828c18.282-27.666,5.888-54.616-13.6-73.242l-83.906-82.635a13.073,13.073,0,0,0-16.711,0l-85.124,82.635c-16.746,17.523-31.011,45.506-12.518,73.242,35.31,52.966,79.448,8.828,79.448,8.828h0c0,22.625-6.444,51.7-8.324,59.683a1.731,1.731,0,0,0,1.739,2.11h66.145a1.722,1.722,0,0,0,1.73-2.1c-1.871-8.006-8.324-37.208-8.324-59.692"/>
      <path id="Caminho_52" data-name="Caminho 52" d="M150.069,141.241l8.828-8.828H105.931a8.828,8.828,0,0,0,0,17.656H158.9a8.828,8.828,0,0,0,8.828-8.828v-8.828a8.828,8.828,0,0,0-17.656,0Z"/>
      <path id="Caminho_53" data-name="Caminho 53" d="M155.813,81.484l2.335-2.758.608-.807c14.226-21.339-.114-51.01-25.754-51.434h-.588A35.308,35.308,0,0,0,97.1,61.794a8.828,8.828,0,0,0,17.656,0,17.653,17.653,0,0,1,17.655-17.655h.441c11.188.187,17.866,14,11.211,23.987l7.345,4.9-6.737-5.7-2.339,2.763a339.03,339.03,0,0,0-44.3,67.212,8.828,8.828,0,0,0,15.79,7.9A321.212,321.212,0,0,1,155.813,81.484Z"/>
    </g>
  </g>
</svg>
