<svg xmlns="http://www.w3.org/2000/svg" width="370.758" height="512" viewBox="0 0 370.758 512">
  <g id="_3C" data-name="3C" transform="translate(-70.621)">
    <path id="Caminho_38" data-name="Caminho 38" d="M423.724,0H88.276A17.651,17.651,0,0,0,70.621,17.655v476.69A17.651,17.651,0,0,0,88.276,512H423.724a17.651,17.651,0,0,0,17.655-17.655V17.655A17.65,17.65,0,0,0,423.724,0" fill="#e6eef4"/>
    <g id="Grupo_29" data-name="Grupo 29">
      <path id="Caminho_39" data-name="Caminho 39" d="M282.482,370.759c0,21.91,6.047,43.82,8.13,50.732a1.738,1.738,0,0,1-1.7,2.233H223.081a1.738,1.738,0,0,1-1.7-2.225c2.074-6.947,8.139-29.1,8.139-50.741a50,50,0,0,1-29.917,9.578c-32.274,0-60.275-27.1-58.253-59.78,1.13-18.379,12.835-34.145,28.425-43.926,15.651-9.825,30.164-10.611,43.14-7.459a56.422,56.422,0,1,1,86.183,0c13.065-3.169,27.692-2.348,43.467,7.662,15.519,9.852,27.18,25.582,28.248,43.926,1.889,32.591-26.2,59.577-58.4,59.577a50.893,50.893,0,0,1-29.924-9.576"/>
      <path id="Caminho_40" data-name="Caminho 40" d="M123.587,97.1a35.31,35.31,0,1,0-11.778-68.6,37.763,37.763,0,0,0-14.2,9.4A8.828,8.828,0,1,0,110.091,50.38a20.815,20.815,0,0,1,7.6-5.234,17.657,17.657,0,1,1,5.9,34.3h-8.8a8.828,8.828,0,0,0,0,17.656h8.8Z"/>
      <path id="Caminho_41" data-name="Caminho 41" d="M123.589,150.067a35.31,35.31,0,1,0,0-70.62h-8.828a8.828,8.828,0,0,0,0,17.656h8.828a17.655,17.655,0,0,1,0,35.31c-4.808,0-9.446-2.183-13.47-6.207A8.828,8.828,0,0,0,97.635,138.69C104.785,145.84,113.768,150.067,123.589,150.067Z"/>
    </g>
  </g>
</svg>
