<svg xmlns="http://www.w3.org/2000/svg" width="370.758" height="512" viewBox="0 0 370.758 512">
  <g id="_3D" data-name="3D" transform="translate(-70.621)">
    <path id="Caminho_42" data-name="Caminho 42" d="M423.724,0H88.276A17.651,17.651,0,0,0,70.621,17.655v476.69A17.651,17.651,0,0,0,88.276,512H423.724a17.651,17.651,0,0,0,17.655-17.655V17.655A17.65,17.65,0,0,0,423.724,0" fill="#e6eef4"/>
    <g id="Grupo_30" data-name="Grupo 30">
      <path id="Caminho_43" data-name="Caminho 43" d="M256,176.552,150.069,308.966,256,441.379,361.931,308.966Z" fill="#d71e00"/>
      <path id="Caminho_44" data-name="Caminho 44" d="M123.587,97.1a35.31,35.31,0,1,0-11.778-68.6,37.763,37.763,0,0,0-14.2,9.4A8.828,8.828,0,1,0,110.091,50.38a20.815,20.815,0,0,1,7.6-5.234,17.657,17.657,0,1,1,5.9,34.3h-8.8a8.828,8.828,0,0,0,0,17.656h8.8Z" fill="#d71e00"/>
      <path id="Caminho_45" data-name="Caminho 45" d="M123.589,150.067a35.31,35.31,0,1,0,0-70.62h-8.828a8.828,8.828,0,0,0,0,17.656h8.828a17.655,17.655,0,0,1,0,35.31c-4.808,0-9.446-2.183-13.47-6.207A8.828,8.828,0,0,0,97.635,138.69C104.785,145.84,113.768,150.067,123.589,150.067Z" fill="#d71e00"/>
    </g>
  </g>
</svg>
