<svg xmlns="http://www.w3.org/2000/svg" width="370.758" height="512" viewBox="0 0 370.758 512">
  <g id="_3H" data-name="3H" transform="translate(-70.621)">
    <path id="Caminho_24" data-name="Caminho 24" d="M423.724,0H88.276A17.652,17.652,0,0,0,70.621,17.659V494.345A17.652,17.652,0,0,0,88.28,512H423.724a17.652,17.652,0,0,0,17.655-17.659V17.655A17.65,17.65,0,0,0,423.724,0" fill="#e6eef4"/>
    <g id="Grupo_26" data-name="Grupo 26">
      <path id="Caminho_26" data-name="Caminho 26" d="M123.587,97.1a35.31,35.31,0,1,0-11.778-68.6,37.763,37.763,0,0,0-14.2,9.4,8.828,8.828,0,1,0,12.482,12.48,20.815,20.815,0,0,1,7.6-5.234,17.657,17.657,0,1,1,5.9,34.3h-8.8a8.828,8.828,0,1,0,0,17.656h8.8Z" fill="#d71e00"/>
      <path id="Caminho_27" data-name="Caminho 27" d="M123.589,150.067a35.31,35.31,0,1,0,0-70.62h-8.828a8.828,8.828,0,0,0,0,17.656h8.828a17.655,17.655,0,1,1,0,35.31c-4.808,0-9.446-2.183-13.47-6.207A8.828,8.828,0,1,0,97.635,138.69C104.785,145.84,113.768,150.067,123.589,150.067Z" fill="#d71e00"/>
      <path id="Caminho_29" data-name="Caminho 29" d="M256,238.345c9.507-24.214,29.625-44.138,54.881-44.138,21.257,0,40.2,9.993,52.966,26.483,16.013,20.692,27.33,66.754-7.715,101.8C338.353,340.268,256,423.724,256,423.724s-82.353-83.456-100.131-101.235c-35.046-35.046-23.729-81.108-7.715-101.8,12.765-16.49,31.709-26.483,52.966-26.483,25.255,0,45.373,19.925,54.88,44.139" fill="#d71e00"/>
    </g>
  </g>
</svg>
