<svg xmlns="http://www.w3.org/2000/svg" width="370.758" height="512" viewBox="0 0 370.758 512">
  <g id="_3S" data-name="3S" transform="translate(-70.621)">
    <path id="Caminho_46" data-name="Caminho 46" d="M423.724,0H88.276A17.651,17.651,0,0,0,70.621,17.655v476.69A17.651,17.651,0,0,0,88.276,512H423.724a17.651,17.651,0,0,0,17.655-17.655V17.655A17.65,17.65,0,0,0,423.724,0" fill="#e6eef4"/>
    <g id="Grupo_31" data-name="Grupo 31">
      <path id="Caminho_47" data-name="Caminho 47" d="M282.483,361.931h0s44.323,44.323,79.448-8.828c18.282-27.666,5.888-54.616-13.6-73.242l-83.906-82.635a13.073,13.073,0,0,0-16.711,0l-85.124,82.635c-16.746,17.523-31.011,45.506-12.518,73.242,35.31,52.966,79.448,8.828,79.448,8.828,0,22.625-6.444,51.7-8.324,59.683a1.731,1.731,0,0,0,1.739,2.11h66.145a1.722,1.722,0,0,0,1.73-2.1c-1.871-8.006-8.324-37.208-8.324-59.692"/>
      <path id="Caminho_48" data-name="Caminho 48" d="M123.587,97.1a35.31,35.31,0,1,0-11.778-68.6,37.763,37.763,0,0,0-14.2,9.4A8.828,8.828,0,1,0,110.091,50.38a20.815,20.815,0,0,1,7.6-5.234,17.657,17.657,0,1,1,5.9,34.3h-8.8a8.828,8.828,0,0,0,0,17.656h8.8Z"/>
      <path id="Caminho_49" data-name="Caminho 49" d="M123.589,150.067a35.31,35.31,0,1,0,0-70.62h-8.828a8.828,8.828,0,0,0,0,17.656h8.828a17.655,17.655,0,0,1,0,35.31c-4.808,0-9.446-2.183-13.47-6.207A8.828,8.828,0,0,0,97.635,138.69C104.785,145.84,113.768,150.067,123.589,150.067Z"/>
    </g>
  </g>
</svg>
