<svg xmlns="http://www.w3.org/2000/svg" width="370.758" height="512" viewBox="0 0 370.758 512">
  <g id="_4D" data-name="4D" transform="translate(-70.621)">
    <path id="Caminho_56" data-name="Caminho 56" d="M423.724,0H88.276A17.651,17.651,0,0,0,70.621,17.655v476.69A17.651,17.651,0,0,0,88.276,512H423.724a17.651,17.651,0,0,0,17.655-17.655V17.655A17.65,17.65,0,0,0,423.724,0" fill="#e6eef4"/>
    <g id="Grupo_33" data-name="Grupo 33">
      <path id="Caminho_57" data-name="Caminho 57" d="M256,176.552,150.069,308.966,256,441.379,361.931,308.966Z" fill="#d71e00"/>
      <path id="Caminho_58" data-name="Caminho 58" d="M98.869,100.634a8.828,8.828,0,0,0,14.125,10.593L165.96,40.606a8.828,8.828,0,0,0-14.125-10.593Z" fill="#d71e00"/>
      <path id="Caminho_59" data-name="Caminho 59" d="M150.069,141.241a8.828,8.828,0,0,0,17.656,0V35.31a8.828,8.828,0,0,0-17.656,0Z" fill="#d71e00"/>
      <path id="Caminho_60" data-name="Caminho 60" d="M105.931,97.1a8.828,8.828,0,0,0,0,17.656h70.621a8.828,8.828,0,0,0,0-17.656Z" fill="#d71e00"/>
      <path id="Caminho_61" data-name="Caminho 61" d="M176.552,150.069a8.828,8.828,0,0,0,0-17.656h-35.31a8.828,8.828,0,0,0,0,17.656Z" fill="#d71e00"/>
    </g>
  </g>
</svg>
