<svg xmlns="http://www.w3.org/2000/svg" width="370.758" height="512" viewBox="0 0 370.758 512">
  <g id="_4S" data-name="4S" transform="translate(-70.621)">
    <path id="Caminho_62" data-name="Caminho 62" d="M423.724,0H88.276A17.651,17.651,0,0,0,70.621,17.655v476.69A17.651,17.651,0,0,0,88.276,512H423.724a17.651,17.651,0,0,0,17.655-17.655V17.655A17.65,17.65,0,0,0,423.724,0" fill="#e6eef4"/>
    <g id="Grupo_34" data-name="Grupo 34">
      <path id="Caminho_63" data-name="Caminho 63" d="M282.483,361.931h0s44.323,44.323,79.448-8.828c18.282-27.666,5.888-54.616-13.6-73.242l-83.906-82.635a13.073,13.073,0,0,0-16.711,0l-85.124,82.635c-16.746,17.523-31.011,45.506-12.518,73.242,35.31,52.966,79.448,8.828,79.448,8.828,0,22.625-6.444,51.7-8.324,59.683a1.731,1.731,0,0,0,1.739,2.11h66.145a1.722,1.722,0,0,0,1.73-2.1c-1.871-8.006-8.324-37.208-8.324-59.692"/>
      <path id="Caminho_64" data-name="Caminho 64" d="M98.869,100.634a8.828,8.828,0,0,0,14.125,10.593L165.96,40.606a8.828,8.828,0,0,0-14.125-10.593Z"/>
      <path id="Caminho_65" data-name="Caminho 65" d="M150.069,141.241a8.828,8.828,0,0,0,17.656,0V35.31a8.828,8.828,0,0,0-17.656,0Z"/>
      <path id="Caminho_66" data-name="Caminho 66" d="M105.931,97.1a8.828,8.828,0,0,0,0,17.656h70.621a8.828,8.828,0,0,0,0-17.656Z"/>
      <path id="Caminho_67" data-name="Caminho 67" d="M176.552,150.069a8.828,8.828,0,0,0,0-17.656h-35.31a8.828,8.828,0,0,0,0,17.656Z"/>
    </g>
  </g>
</svg>
