<svg xmlns="http://www.w3.org/2000/svg" width="370.758" height="512" viewBox="0 0 370.758 512">
  <g id="_5C" data-name="5C" transform="translate(-70.621)">
    <path id="Caminho_56" data-name="Caminho 56" d="M423.724,0H88.276A17.651,17.651,0,0,0,70.621,17.655v476.69A17.651,17.651,0,0,0,88.276,512H423.724a17.651,17.651,0,0,0,17.655-17.655V17.655A17.65,17.65,0,0,0,423.724,0" fill="#e6eef4"/>
    <g id="Grupo_33" data-name="Grupo 33">
      <path id="Caminho_57" data-name="Caminho 57" d="M282.482,370.759c0,21.91,6.047,43.82,8.13,50.732a1.738,1.738,0,0,1-1.7,2.233H223.081a1.738,1.738,0,0,1-1.7-2.225c2.074-6.947,8.139-29.1,8.139-50.741a50,50,0,0,1-29.917,9.578c-32.274,0-60.275-27.1-58.253-59.78,1.13-18.379,12.835-34.145,28.425-43.926,15.651-9.825,30.164-10.611,43.14-7.459a56.422,56.422,0,1,1,86.183,0c13.065-3.169,27.692-2.348,43.467,7.662,15.519,9.852,27.18,25.582,28.248,43.926,1.889,32.591-26.2,59.577-58.4,59.577a50.893,50.893,0,0,1-29.924-9.576"/>
      <path id="Caminho_58" data-name="Caminho 58" d="M150.069,44.138a8.828,8.828,0,1,0,0-17.656H105.931a8.828,8.828,0,1,0,0,17.656Z"/>
      <path id="Caminho_59" data-name="Caminho 59" d="M97.1,79.448a8.828,8.828,0,1,0,17.656,0V35.31a8.828,8.828,0,0,0-17.656,0Z"/>
      <path id="Caminho_60" data-name="Caminho 60" d="M126.535,134.376a36.29,36.29,0,1,0-27.223-60.3A8.828,8.828,0,0,0,112.551,85.76a18.64,18.64,0,1,1,0,24.645,8.828,8.828,0,1,0-13.239,11.681A36.221,36.221,0,0,0,126.535,134.376Z"/>
    </g>
  </g>
</svg>
