<svg xmlns="http://www.w3.org/2000/svg" width="370.758" height="512" viewBox="0 0 370.758 512">
  <g id="_5D" data-name="5D" transform="translate(-70.621)">
    <path id="Caminho_61" data-name="Caminho 61" d="M423.724,0H88.276A17.651,17.651,0,0,0,70.621,17.655v476.69A17.651,17.651,0,0,0,88.276,512H423.724a17.651,17.651,0,0,0,17.655-17.655V17.655A17.65,17.65,0,0,0,423.724,0" fill="#e6eef4"/>
    <g id="Grupo_34" data-name="Grupo 34">
      <path id="Caminho_62" data-name="Caminho 62" d="M256,176.552,150.069,308.966,256,441.379,361.931,308.966Z" fill="#d71e00"/>
      <path id="Caminho_63" data-name="Caminho 63" d="M150.069,44.138a8.828,8.828,0,1,0,0-17.656H105.931a8.828,8.828,0,1,0,0,17.656Z" fill="#d71e00"/>
      <path id="Caminho_64" data-name="Caminho 64" d="M97.1,79.448a8.828,8.828,0,1,0,17.656,0V35.31a8.828,8.828,0,0,0-17.656,0Z" fill="#d71e00"/>
      <path id="Caminho_65" data-name="Caminho 65" d="M126.535,134.376a36.29,36.29,0,1,0-27.223-60.3A8.828,8.828,0,0,0,112.551,85.76a18.64,18.64,0,1,1,0,24.645,8.828,8.828,0,1,0-13.239,11.681A36.221,36.221,0,0,0,126.535,134.376Z" fill="#d71e00"/>
    </g>
  </g>
</svg>
