<svg xmlns="http://www.w3.org/2000/svg" width="370.758" height="512" viewBox="0 0 370.758 512">
  <g id="_5S" data-name="5S" transform="translate(-70.621)">
    <path id="Caminho_66" data-name="Caminho 66" d="M423.724,0H88.276A17.651,17.651,0,0,0,70.621,17.655v476.69A17.651,17.651,0,0,0,88.276,512H423.724a17.651,17.651,0,0,0,17.655-17.655V17.655A17.65,17.65,0,0,0,423.724,0" fill="#e6eef4"/>
    <g id="Grupo_35" data-name="Grupo 35">
      <path id="Caminho_67" data-name="Caminho 67" d="M150.069,44.138a8.828,8.828,0,1,0,0-17.656H105.931a8.828,8.828,0,1,0,0,17.656Z"/>
      <path id="Caminho_68" data-name="Caminho 68" d="M97.1,79.448a8.828,8.828,0,1,0,17.656,0V35.31a8.828,8.828,0,0,0-17.656,0Z"/>
      <path id="Caminho_69" data-name="Caminho 69" d="M126.535,134.376a36.29,36.29,0,1,0-27.223-60.3A8.828,8.828,0,0,0,112.551,85.76a18.64,18.64,0,1,1,0,24.645,8.828,8.828,0,1,0-13.239,11.681A36.221,36.221,0,0,0,126.535,134.376Z"/>
      <path id="Caminho_70" data-name="Caminho 70" d="M282.483,361.931h0s44.323,44.323,79.448-8.828c18.282-27.666,5.888-54.616-13.6-73.242l-83.906-82.635a13.073,13.073,0,0,0-16.711,0l-85.124,82.635c-16.746,17.523-31.011,45.506-12.518,73.242,35.31,52.966,79.448,8.828,79.448,8.828,0,22.625-6.444,51.7-8.324,59.683a1.731,1.731,0,0,0,1.739,2.11h66.145a1.722,1.722,0,0,0,1.73-2.1c-1.871-8.006-8.324-37.208-8.324-59.692"/>
    </g>
  </g>
</svg>
