<svg xmlns="http://www.w3.org/2000/svg" width="370.758" height="512" viewBox="0 0 370.758 512">
  <g id="_6D" data-name="6D" transform="translate(-70.621)">
    <path id="Caminho_75" data-name="Caminho 75" d="M423.724,0H88.276A17.651,17.651,0,0,0,70.621,17.655v476.69A17.651,17.651,0,0,0,88.276,512H423.724a17.651,17.651,0,0,0,17.655-17.655V17.655A17.65,17.65,0,0,0,423.724,0" fill="#e6eef4"/>
    <g id="Grupo_37" data-name="Grupo 37">
      <path id="Caminho_76" data-name="Caminho 76" d="M256,176.552,150.069,308.966,256,441.379,361.931,308.966Z" fill="#d71e00"/>
      <path id="Caminho_77" data-name="Caminho 77" d="M132.414,141.241a35.31,35.31,0,1,0-35.31-35.31A35.308,35.308,0,0,0,132.414,141.241Zm0-52.965a17.655,17.655,0,1,1-17.655,17.655A17.653,17.653,0,0,1,132.414,88.276Z" fill="#d71e00"/>
      <path id="Caminho_78" data-name="Caminho 78" d="M158.9,44.138a8.828,8.828,0,1,0,0-17.656c-36,0-61.793,32.744-61.793,79.448a8.828,8.828,0,0,0,17.656,0C114.759,68.178,133.694,44.138,158.9,44.138Z" fill="#d71e00"/>
    </g>
  </g>
</svg>
