<svg xmlns="http://www.w3.org/2000/svg" width="370.758" height="512" viewBox="0 0 370.758 512">
  <g id="_6H" data-name="6H" transform="translate(-70.621)">
    <path id="Caminho_79" data-name="Caminho 79" d="M423.724,0H88.276A17.651,17.651,0,0,0,70.621,17.655v476.69A17.651,17.651,0,0,0,88.276,512H423.724a17.651,17.651,0,0,0,17.655-17.655V17.655A17.65,17.65,0,0,0,423.724,0" fill="#e6eef4"/>
    <g id="Grupo_38" data-name="Grupo 38">
      <path id="Caminho_80" data-name="Caminho 80" d="M256,238.345c9.507-24.214,29.625-44.138,54.881-44.138,21.257,0,40.2,9.993,52.966,26.483,16.013,20.692,27.33,66.754-7.715,101.8C338.353,340.268,256,423.724,256,423.724s-82.353-83.456-100.131-101.235c-35.046-35.046-23.729-81.108-7.715-101.8,12.765-16.49,31.709-26.483,52.966-26.483,25.255,0,45.373,19.925,54.88,44.139" fill="#d71e00"/>
      <path id="Caminho_81" data-name="Caminho 81" d="M132.414,141.241a35.31,35.31,0,1,0-35.31-35.31A35.308,35.308,0,0,0,132.414,141.241Zm0-52.965a17.655,17.655,0,1,1-17.655,17.655A17.653,17.653,0,0,1,132.414,88.276Z" fill="#d71e00"/>
      <path id="Caminho_82" data-name="Caminho 82" d="M158.9,44.138a8.828,8.828,0,1,0,0-17.656c-36,0-61.793,32.744-61.793,79.448a8.828,8.828,0,0,0,17.656,0C114.759,68.178,133.694,44.138,158.9,44.138Z" fill="#d71e00"/>
    </g>
  </g>
</svg>
