<svg xmlns="http://www.w3.org/2000/svg" width="370.758" height="512" viewBox="0 0 370.758 512">
  <g id="_6S" data-name="6S" transform="translate(-70.621)">
    <path id="Caminho_83" data-name="Caminho 83" d="M423.724,0H88.276A17.651,17.651,0,0,0,70.621,17.655v476.69A17.651,17.651,0,0,0,88.276,512H423.724a17.651,17.651,0,0,0,17.655-17.655V17.655A17.65,17.65,0,0,0,423.724,0" fill="#e6eef4"/>
    <g id="Grupo_39" data-name="Grupo 39">
      <path id="Caminho_84" data-name="Caminho 84" d="M282.483,361.931h0s44.323,44.323,79.448-8.828c18.282-27.666,5.888-54.616-13.6-73.242l-83.906-82.635a13.073,13.073,0,0,0-16.711,0l-85.124,82.635c-16.746,17.523-31.011,45.506-12.518,73.242,35.31,52.966,79.448,8.828,79.448,8.828,0,22.625-6.444,51.7-8.324,59.683a1.731,1.731,0,0,0,1.739,2.11h66.145a1.722,1.722,0,0,0,1.73-2.1c-1.871-8.006-8.324-37.208-8.324-59.692"/>
      <path id="Caminho_85" data-name="Caminho 85" d="M132.414,141.241a35.31,35.31,0,1,0-35.31-35.31A35.308,35.308,0,0,0,132.414,141.241Zm0-52.965a17.655,17.655,0,1,1-17.655,17.655A17.653,17.653,0,0,1,132.414,88.276Z"/>
      <path id="Caminho_86" data-name="Caminho 86" d="M158.9,44.138a8.828,8.828,0,1,0,0-17.656c-36,0-61.793,32.744-61.793,79.448a8.828,8.828,0,0,0,17.656,0C114.759,68.178,133.694,44.138,158.9,44.138Z"/>
    </g>
  </g>
</svg>
