<svg xmlns="http://www.w3.org/2000/svg" width="370.758" height="512" viewBox="0 0 370.758 512">
  <g id="_7H" data-name="7H" transform="translate(-70.621)">
    <path id="Caminho_28" data-name="Caminho 28" d="M423.724,0H88.276A17.652,17.652,0,0,0,70.621,17.659V494.345A17.652,17.652,0,0,0,88.28,512H423.724a17.652,17.652,0,0,0,17.655-17.659V17.655A17.65,17.65,0,0,0,423.724,0" fill="#e6eef4"/>
    <g id="Grupo_27" data-name="Grupo 27">
      <path id="Caminho_29" data-name="Caminho 29" d="M256,238.345c9.507-24.214,29.625-44.138,54.881-44.138,21.257,0,40.2,9.993,52.966,26.483,16.013,20.692,27.33,66.754-7.715,101.8C338.353,340.268,256,423.724,256,423.724s-82.353-83.456-100.131-101.235c-35.046-35.046-23.729-81.108-7.715-101.8,12.765-16.49,31.709-26.483,52.966-26.483,25.255,0,45.373,19.925,54.88,44.139" fill="#d71e00"/>
      <path id="Caminho_30" data-name="Caminho 30" d="M158.9,44.138a8.828,8.828,0,1,0,0-17.656H105.931a8.828,8.828,0,1,0,0,17.656Z" fill="#d71e00"/>
      <path id="Caminho_31" data-name="Caminho 31" d="M114.759,35.31a8.828,8.828,0,0,0-17.656,0v8.828a8.828,8.828,0,1,0,17.656,0Z" fill="#d71e00"/>
      <path id="Caminho_32" data-name="Caminho 32" d="M114.881,122.122a8.828,8.828,0,1,0,17.411,2.929c6.146-36.533,13.1-53.566,33.951-84.845a8.827,8.827,0,1,0-14.691-9.791C129.358,63.714,121.451,83.07,114.881,122.122Z" fill="#d71e00"/>
    </g>
  </g>
</svg>
