<svg xmlns="http://www.w3.org/2000/svg" width="370.758" height="512" viewBox="0 0 370.758 512">
  <g id="_7S" data-name="7S" transform="translate(-70.621)">
    <path id="Caminho_92" data-name="Caminho 92" d="M423.724,0H88.276A17.651,17.651,0,0,0,70.621,17.655v476.69A17.651,17.651,0,0,0,88.276,512H423.724a17.651,17.651,0,0,0,17.655-17.655V17.655A17.65,17.65,0,0,0,423.724,0" fill="#e6eef4"/>
    <g id="Grupo_41" data-name="Grupo 41">
      <path id="Caminho_93" data-name="Caminho 93" d="M282.483,361.931h0s44.323,44.323,79.448-8.828c18.282-27.666,5.888-54.616-13.6-73.242l-83.906-82.635a13.073,13.073,0,0,0-16.711,0l-85.124,82.635c-16.746,17.523-31.011,45.506-12.518,73.242,35.31,52.966,79.448,8.828,79.448,8.828,0,22.625-6.444,51.7-8.324,59.683a1.731,1.731,0,0,0,1.739,2.11h66.145a1.722,1.722,0,0,0,1.73-2.1c-1.871-8.006-8.324-37.208-8.324-59.692"/>
      <path id="Caminho_94" data-name="Caminho 94" d="M158.9,44.138a8.828,8.828,0,1,0,0-17.656H105.931a8.828,8.828,0,1,0,0,17.656Z"/>
      <path id="Caminho_95" data-name="Caminho 95" d="M114.759,35.31a8.828,8.828,0,0,0-17.656,0v8.828a8.828,8.828,0,0,0,17.656,0Z"/>
      <path id="Caminho_96" data-name="Caminho 96" d="M114.881,122.122a8.828,8.828,0,1,0,17.411,2.929c6.146-36.533,13.1-53.566,33.951-84.845a8.827,8.827,0,1,0-14.691-9.791C129.358,63.714,121.451,83.07,114.881,122.122Z"/>
    </g>
  </g>
</svg>
