<svg xmlns="http://www.w3.org/2000/svg" width="370.758" height="512" viewBox="0 0 370.758 512">
  <g id="_9D" data-name="9D" transform="translate(-70.621)">
    <path id="Caminho_117" data-name="Caminho 117" d="M423.724,0H88.276A17.651,17.651,0,0,0,70.621,17.655v476.69A17.651,17.651,0,0,0,88.276,512H423.724a17.651,17.651,0,0,0,17.655-17.655V17.655A17.65,17.65,0,0,0,423.724,0" fill="#e6eef4"/>
    <g id="Grupo_47" data-name="Grupo 47">
      <path id="Caminho_118" data-name="Caminho 118" d="M256,176.552,150.069,308.966,256,441.379,361.931,308.966Z" fill="#d71e00"/>
      <path id="Caminho_119" data-name="Caminho 119" d="M132.417,150.068a35.387,35.387,0,0,0,35.31-35.31V61.792a8.828,8.828,0,0,0-17.656,0v52.966a17.653,17.653,0,0,1-34.3,5.883,8.828,8.828,0,0,0-16.625,5.943A35.41,35.41,0,0,0,132.417,150.068Z" fill="#d71e00"/>
      <path id="Caminho_120" data-name="Caminho 120" d="M132.414,26.483a35.31,35.31,0,1,0,35.31,35.31A35.308,35.308,0,0,0,132.414,26.483Zm0,52.965a17.655,17.655,0,1,1,17.655-17.655A17.653,17.653,0,0,1,132.414,79.448Z" fill="#d71e00"/>
    </g>
  </g>
</svg>
