<svg xmlns="http://www.w3.org/2000/svg" width="370.758" height="512" viewBox="0 0 370.758 512">
  <g id="_9S" data-name="9S" transform="translate(-70.621)">
    <path id="Caminho_125" data-name="Caminho 125" d="M423.724,0H88.276A17.651,17.651,0,0,0,70.621,17.655v476.69A17.651,17.651,0,0,0,88.276,512H423.724a17.651,17.651,0,0,0,17.655-17.655V17.655A17.65,17.65,0,0,0,423.724,0" fill="#e6eef4"/>
    <g id="Grupo_49" data-name="Grupo 49">
      <path id="Caminho_126" data-name="Caminho 126" d="M282.483,361.931h0s44.323,44.323,79.448-8.828c18.282-27.666,5.888-54.616-13.6-73.242l-83.906-82.635a13.073,13.073,0,0,0-16.711,0l-85.124,82.635c-16.746,17.523-31.011,45.506-12.518,73.242,35.31,52.966,79.448,8.828,79.448,8.828,0,22.625-6.444,51.7-8.324,59.683a1.731,1.731,0,0,0,1.739,2.11h66.145a1.722,1.722,0,0,0,1.73-2.1c-1.871-8.006-8.324-37.208-8.324-59.692"/>
      <path id="Caminho_127" data-name="Caminho 127" d="M132.417,150.068a35.387,35.387,0,0,0,35.31-35.31V61.792a8.828,8.828,0,0,0-17.656,0v52.966a17.653,17.653,0,0,1-34.3,5.883,8.828,8.828,0,0,0-16.625,5.943A35.41,35.41,0,0,0,132.417,150.068Z"/>
      <path id="Caminho_128" data-name="Caminho 128" d="M132.414,26.483a35.31,35.31,0,1,0,35.31,35.31A35.308,35.308,0,0,0,132.414,26.483Zm0,52.965a17.655,17.655,0,1,1,17.655-17.655A17.653,17.653,0,0,1,132.414,79.448Z"/>
    </g>
  </g>
</svg>
