<svg xmlns="http://www.w3.org/2000/svg" width="370.758" height="512" viewBox="0 0 370.758 512">
  <g id="AD" transform="translate(-70.621)">
    <path id="Caminho_133" data-name="Caminho 133" d="M423.724,0H88.276A17.651,17.651,0,0,0,70.621,17.655v476.69A17.651,17.651,0,0,0,88.276,512H423.724a17.651,17.651,0,0,0,17.655-17.655V17.655A17.65,17.65,0,0,0,423.724,0" fill="#e6eef4"/>
    <g id="Grupo_51" data-name="Grupo 51">
      <path id="Caminho_134" data-name="Caminho 134" d="M256,176.552,150.069,308.966,256,441.379,361.931,308.966Z" fill="#d71e00"/>
      <path id="Caminho_135" data-name="Caminho 135" d="M149.616,32.519a8.827,8.827,0,0,0-16.749,0L97.556,138.45a8.827,8.827,0,1,0,16.749,5.583L149.615,38.1H132.866l35.31,105.931a8.827,8.827,0,1,0,16.749-5.583Z" fill="#d71e00"/>
      <path id="Caminho_136" data-name="Caminho 136" d="M158.9,114.759a8.828,8.828,0,0,0,0-17.656h-35.31a8.828,8.828,0,0,0,0,17.656Z" fill="#d71e00"/>
    </g>
  </g>
</svg>
