<svg xmlns="http://www.w3.org/2000/svg" width="370.758" height="512" viewBox="0 0 370.758 512">
  <g id="AH" transform="translate(-70.621)">
    <path id="Caminho_137" data-name="Caminho 137" d="M423.724,0H88.276A17.651,17.651,0,0,0,70.621,17.655v476.69A17.651,17.651,0,0,0,88.276,512H423.724a17.651,17.651,0,0,0,17.655-17.655V17.655A17.65,17.65,0,0,0,423.724,0" fill="#e6eef4"/>
    <g id="Grupo_52" data-name="Grupo 52">
      <path id="Caminho_138" data-name="Caminho 138" d="M256,238.345c9.507-24.214,29.625-44.138,54.881-44.138,21.257,0,40.2,9.993,52.966,26.483,16.013,20.692,27.33,66.754-7.715,101.8C338.353,340.268,256,423.724,256,423.724s-82.353-83.456-100.131-101.235c-35.046-35.046-23.729-81.108-7.715-101.8,12.765-16.49,31.709-26.483,52.966-26.483,25.255,0,45.373,19.925,54.88,44.139" fill="#d71e00"/>
      <path id="Caminho_139" data-name="Caminho 139" d="M149.616,32.519a8.827,8.827,0,0,0-16.749,0L97.556,138.45a8.827,8.827,0,1,0,16.749,5.583L149.615,38.1H132.866l35.31,105.931a8.827,8.827,0,1,0,16.749-5.583Z" fill="#d71e00"/>
      <path id="Caminho_140" data-name="Caminho 140" d="M158.9,114.759a8.828,8.828,0,0,0,0-17.656h-35.31a8.828,8.828,0,0,0,0,17.656Z" fill="#d71e00"/>
    </g>
  </g>
</svg>
