<svg xmlns="http://www.w3.org/2000/svg" width="370.758" height="512" viewBox="0 0 370.758 512">
  <g id="AS" transform="translate(-70.621)">
    <path id="Caminho_141" data-name="Caminho 141" d="M423.724,0H88.276A17.651,17.651,0,0,0,70.621,17.655v476.69A17.651,17.651,0,0,0,88.276,512H423.724a17.651,17.651,0,0,0,17.655-17.655V17.655A17.65,17.65,0,0,0,423.724,0" fill="#e6eef4"/>
    <g id="Grupo_53" data-name="Grupo 53">
      <path id="Caminho_142" data-name="Caminho 142" d="M282.483,361.931h0s44.323,44.323,79.448-8.828c18.282-27.666,5.888-54.616-13.6-73.242l-83.906-82.635a13.073,13.073,0,0,0-16.711,0l-85.124,82.635c-16.746,17.523-31.011,45.506-12.518,73.242,35.31,52.966,79.448,8.828,79.448,8.828,0,22.625-6.444,51.7-8.324,59.683a1.731,1.731,0,0,0,1.739,2.11h66.145a1.722,1.722,0,0,0,1.73-2.1c-1.871-8.006-8.324-37.208-8.324-59.692"/>
      <path id="Caminho_143" data-name="Caminho 143" d="M149.616,32.519a8.827,8.827,0,0,0-16.749,0L97.556,138.45a8.827,8.827,0,1,0,16.749,5.583L149.615,38.1H132.866l35.31,105.931a8.827,8.827,0,1,0,16.749-5.583Z"/>
      <path id="Caminho_144" data-name="Caminho 144" d="M158.9,114.759a8.828,8.828,0,0,0,0-17.656h-35.31a8.828,8.828,0,0,0,0,17.656Z"/>
    </g>
  </g>
</svg>
