<svg xmlns="http://www.w3.org/2000/svg" width="370.758" height="512" viewBox="0 0 370.758 512">
  <g id="back" transform="translate(-70.621)">
    <path id="Caminho_197" data-name="Caminho 197" d="M423.724,0H88.276A17.651,17.651,0,0,0,70.621,17.655v476.69A17.651,17.651,0,0,0,88.276,512H423.724a17.651,17.651,0,0,0,17.655-17.655V17.655A17.65,17.65,0,0,0,423.724,0" fill="#e6eef4"/>
    <g id="Grupo_66" data-name="Grupo 66">
      <path id="Caminho_198" data-name="Caminho 198" d="M406.069,485.517a8.828,8.828,0,0,0,8.828-8.828V35.31a8.828,8.828,0,0,0-8.828-8.828H105.931A8.828,8.828,0,0,0,97.1,35.31V476.69a8.828,8.828,0,0,0,8.828,8.828H406.069Zm-291.31-8.827V35.31l-8.828,8.828H406.069l-8.828-8.828V476.69l8.828-8.828H105.931Z" fill="#d71e00"/>
      <path id="Caminho_199" data-name="Caminho 199" d="M99.691,104.376a8.828,8.828,0,0,0,12.484,12.484l75.308-75.308A8.828,8.828,0,1,0,175,29.068Z" fill="#d71e00"/>
      <path id="Caminho_200" data-name="Caminho 200" d="M262.383,41.557A8.828,8.828,0,0,0,249.9,29.073L99.689,179.283a8.828,8.828,0,1,0,12.484,12.484Z" fill="#d71e00"/>
      <path id="Caminho_201" data-name="Caminho 201" d="M337.294,41.551A8.828,8.828,0,0,0,324.81,29.067L99.689,254.188a8.828,8.828,0,0,0,12.484,12.484Z" fill="#d71e00"/>
      <path id="Caminho_202" data-name="Caminho 202" d="M412.2,41.553a8.828,8.828,0,0,0-12.484-12.484L99.689,329.092a8.828,8.828,0,0,0,12.484,12.484Z" fill="#d71e00"/>
      <path id="Caminho_203" data-name="Caminho 203" d="M412.311,116.342a8.828,8.828,0,0,0-12.484-12.484L99.689,404a8.828,8.828,0,0,0,12.484,12.484Z" fill="#d71e00"/>
      <path id="Caminho_204" data-name="Caminho 204" d="M412.315,191.244a8.828,8.828,0,0,0-12.484-12.484L114.8,463.793a8.828,8.828,0,0,0,12.484,12.484Z" fill="#d71e00"/>
      <path id="Caminho_205" data-name="Caminho 205" d="M183.048,470.447a8.828,8.828,0,0,0,12.484,12.484L412.311,266.152a8.828,8.828,0,1,0-12.484-12.484Z" fill="#d71e00"/>
      <path id="Caminho_206" data-name="Caminho 206" d="M257.95,470.449a8.828,8.828,0,0,0,12.484,12.484L412.311,341.056a8.828,8.828,0,0,0-12.484-12.484Z" fill="#d71e00"/>
      <path id="Caminho_207" data-name="Caminho 207" d="M412.315,415.957a8.828,8.828,0,0,0-12.484-12.484l-66.975,66.975a8.828,8.828,0,0,0,12.484,12.484Z" fill="#d71e00"/>
    </g>
  </g>
</svg>
