<svg xmlns="http://www.w3.org/2000/svg" width="370.758" height="512" viewBox="0 0 370.758 512">
  <g id="JD" transform="translate(-70.621)">
    <path id="Caminho_149" data-name="Caminho 149" d="M423.724,0H88.276A17.651,17.651,0,0,0,70.621,17.655v476.69A17.651,17.651,0,0,0,88.276,512H423.724a17.651,17.651,0,0,0,17.655-17.655V17.655A17.65,17.65,0,0,0,423.724,0" fill="#e6eef4"/>
    <g id="Grupo_55" data-name="Grupo 55">
      <path id="Caminho_150" data-name="Caminho 150" d="M256,176.552,150.069,308.966,256,441.379,361.931,308.966Z" fill="#d71e00"/>
      <path id="Caminho_151" data-name="Caminho 151" d="M132.414,141.241a35.387,35.387,0,0,0,35.31-35.31V35.31a8.828,8.828,0,0,0-17.656,0v70.621a17.655,17.655,0,0,1-35.31,0,8.828,8.828,0,1,0-17.656,0A35.39,35.39,0,0,0,132.414,141.241Z" fill="#d71e00"/>
      <path id="Caminho_152" data-name="Caminho 152" d="M176.552,44.138a8.828,8.828,0,1,0,0-17.656h-35.31a8.828,8.828,0,1,0,0,17.656Z" fill="#d71e00"/>
    </g>
  </g>
</svg>
