<svg xmlns="http://www.w3.org/2000/svg" width="370.758" height="512" viewBox="0 0 370.758 512">
  <g id="KD" transform="translate(-70.621)">
    <path id="Caminho_166" data-name="Caminho 166" d="M423.724,0H88.276A17.651,17.651,0,0,0,70.621,17.655v476.69A17.651,17.651,0,0,0,88.276,512H423.724a17.651,17.651,0,0,0,17.655-17.655V17.655A17.65,17.65,0,0,0,423.724,0" fill="#e6eef4"/>
    <g id="Grupo_59" data-name="Grupo 59">
      <path id="Caminho_167" data-name="Caminho 167" d="M256,176.552,150.069,308.966,256,441.379,361.931,308.966Z" fill="#d71e00"/>
      <path id="Caminho_168" data-name="Caminho 168" d="M97.1,141.241a8.828,8.828,0,1,0,17.656,0V35.31a8.828,8.828,0,0,0-17.656,0Z" fill="#d71e00"/>
      <path id="Caminho_169" data-name="Caminho 169" d="M165.6,41.055a8.827,8.827,0,0,0-13.4-11.49L99.229,91.359a8.827,8.827,0,1,0,13.4,11.49Z" fill="#d71e00"/>
      <path id="Caminho_170" data-name="Caminho 170" d="M130.77,74.317A8.827,8.827,0,1,0,116.4,84.579l44.138,61.793a8.827,8.827,0,0,0,14.366-10.262Z" fill="#d71e00"/>
    </g>
  </g>
</svg>
