<svg xmlns="http://www.w3.org/2000/svg" width="370.758" height="512" viewBox="0 0 370.758 512">
  <g id="KH" transform="translate(-70.621)">
    <path id="Caminho_171" data-name="Caminho 171" d="M423.724,0H88.276A17.651,17.651,0,0,0,70.621,17.655v476.69A17.651,17.651,0,0,0,88.276,512H423.724a17.651,17.651,0,0,0,17.655-17.655V17.655A17.65,17.65,0,0,0,423.724,0" fill="#e6eef4"/>
    <g id="Grupo_60" data-name="Grupo 60">
      <path id="Caminho_172" data-name="Caminho 172" d="M256,238.345c9.507-24.214,29.625-44.138,54.881-44.138,21.257,0,40.2,9.993,52.966,26.483,16.013,20.692,27.33,66.754-7.715,101.8C338.353,340.268,256,423.724,256,423.724s-82.353-83.456-100.131-101.235c-35.046-35.046-23.729-81.108-7.715-101.8,12.765-16.49,31.709-26.483,52.966-26.483,25.255,0,45.373,19.925,54.88,44.139" fill="#d71e00"/>
      <path id="Caminho_173" data-name="Caminho 173" d="M97.1,141.241a8.828,8.828,0,1,0,17.656,0V35.31a8.828,8.828,0,0,0-17.656,0Z" fill="#d71e00"/>
      <path id="Caminho_174" data-name="Caminho 174" d="M165.6,41.055a8.827,8.827,0,0,0-13.4-11.49L99.229,91.359a8.827,8.827,0,1,0,13.4,11.49Z" fill="#d71e00"/>
      <path id="Caminho_175" data-name="Caminho 175" d="M130.77,74.317A8.827,8.827,0,1,0,116.4,84.579l44.138,61.793a8.827,8.827,0,0,0,14.366-10.262Z" fill="#d71e00"/>
    </g>
  </g>
</svg>
