<svg xmlns="http://www.w3.org/2000/svg" width="370.758" height="512" viewBox="0 0 370.758 512">
  <g id="KS" transform="translate(-70.621)">
    <path id="Caminho_176" data-name="Caminho 176" d="M423.724,0H88.276A17.651,17.651,0,0,0,70.621,17.655v476.69A17.651,17.651,0,0,0,88.276,512H423.724a17.651,17.651,0,0,0,17.655-17.655V17.655A17.65,17.65,0,0,0,423.724,0" fill="#e6eef4"/>
    <g id="Grupo_61" data-name="Grupo 61">
      <path id="Caminho_177" data-name="Caminho 177" d="M282.483,361.931h0s44.323,44.323,79.448-8.828c18.282-27.666,5.888-54.616-13.6-73.242l-83.906-82.635a13.073,13.073,0,0,0-16.711,0l-85.124,82.635c-16.746,17.523-31.011,45.506-12.518,73.242,35.31,52.966,79.448,8.828,79.448,8.828,0,22.625-6.444,51.7-8.324,59.683a1.731,1.731,0,0,0,1.739,2.11h66.145a1.722,1.722,0,0,0,1.73-2.1c-1.871-8.006-8.324-37.208-8.324-59.692"/>
      <path id="Caminho_178" data-name="Caminho 178" d="M97.1,141.241a8.828,8.828,0,1,0,17.656,0V35.31a8.828,8.828,0,0,0-17.656,0Z"/>
      <path id="Caminho_179" data-name="Caminho 179" d="M165.6,41.055a8.827,8.827,0,0,0-13.4-11.49L99.229,91.359a8.827,8.827,0,1,0,13.4,11.49Z"/>
      <path id="Caminho_180" data-name="Caminho 180" d="M130.77,74.317A8.827,8.827,0,1,0,116.4,84.579l44.138,61.793a8.827,8.827,0,0,0,14.366-10.262Z"/>
    </g>
  </g>
</svg>
