<svg xmlns="http://www.w3.org/2000/svg" width="370.758" height="512" viewBox="0 0 370.758 512">
  <g id="QC" transform="translate(-70.621)">
    <path id="Caminho_181" data-name="Caminho 181" d="M423.724,0H88.276A17.651,17.651,0,0,0,70.621,17.655v476.69A17.651,17.651,0,0,0,88.276,512H423.724a17.651,17.651,0,0,0,17.655-17.655V17.655A17.65,17.65,0,0,0,423.724,0" fill="#e6eef4"/>
    <g id="Grupo_62" data-name="Grupo 62">
      <path id="Caminho_182" data-name="Caminho 182" d="M282.483,370.759c0,21.91,6.038,43.82,8.13,50.732a1.738,1.738,0,0,1-1.7,2.233H223.082a1.738,1.738,0,0,1-1.7-2.225c2.074-6.947,8.139-29.1,8.139-50.741a50.013,50.013,0,0,1-29.917,9.578c-32.274,0-60.275-27.1-58.253-59.78,1.13-18.379,12.835-34.145,28.425-43.926,15.651-9.825,30.164-10.611,43.14-7.459a56.422,56.422,0,1,1,86.183,0c13.065-3.169,27.692-2.348,43.467,7.662,15.519,9.852,27.18,25.582,28.248,43.926,1.889,32.591-26.2,59.577-58.4,59.577a50.891,50.891,0,0,1-29.924-9.576"/>
      <path id="Caminho_183" data-name="Caminho 183" d="M97.1,61.793v52.966a35.31,35.31,0,0,0,70.62,0V61.793a35.31,35.31,0,1,0-70.62,0Zm52.966,0v52.966a17.655,17.655,0,1,1-35.31,0V61.793a17.655,17.655,0,1,1,35.31,0Z"/>
      <path id="Caminho_184" data-name="Caminho 184" d="M162.428,148.3a8.828,8.828,0,0,0,10.593-14.125l-35.31-26.483a8.828,8.828,0,0,0-10.593,14.125Z"/>
    </g>
  </g>
</svg>
