<svg xmlns="http://www.w3.org/2000/svg" width="370.758" height="512" viewBox="0 0 370.758 512">
  <g id="QD" transform="translate(-70.621)">
    <path id="Caminho_185" data-name="Caminho 185" d="M423.724,0H88.276A17.651,17.651,0,0,0,70.621,17.655v476.69A17.651,17.651,0,0,0,88.276,512H423.724a17.651,17.651,0,0,0,17.655-17.655V17.655A17.65,17.65,0,0,0,423.724,0" fill="#e6eef4"/>
    <g id="Grupo_63" data-name="Grupo 63">
      <path id="Caminho_186" data-name="Caminho 186" d="M256,176.552,150.069,308.966,256,441.379,361.931,308.966Z" fill="#d71e00"/>
      <path id="Caminho_187" data-name="Caminho 187" d="M97.1,61.793v52.966a35.31,35.31,0,0,0,70.62,0V61.793a35.31,35.31,0,1,0-70.62,0Zm52.966,0v52.966a17.655,17.655,0,1,1-35.31,0V61.793a17.655,17.655,0,1,1,35.31,0Z" fill="#d71e00"/>
      <path id="Caminho_188" data-name="Caminho 188" d="M162.428,148.3a8.828,8.828,0,0,0,10.593-14.125l-35.31-26.483a8.828,8.828,0,0,0-10.593,14.125Z" fill="#d71e00"/>
    </g>
  </g>
</svg>
